<mxfile host="app.diagrams.net" agent="Mozilla/5.0 (Macintosh; Intel Mac OS X 10_15_7) AppleWebKit/605.1.15 (KHTML, like Gecko) Version/18.3 Safari/605.1.15" version="27.2.0">
  <diagram name="第 1 页" id="2GNiayZsVaWOOX1PZP1M">
    <mxGraphModel dx="946" dy="534" grid="1" gridSize="10" guides="1" tooltips="1" connect="1" arrows="1" fold="1" page="1" pageScale="1" pageWidth="827" pageHeight="1169" math="0" shadow="0">
      <root>
        <mxCell id="0" />
        <mxCell id="1" parent="0" />
        <mxCell id="5F9VPTxNChQA8b4Fi6tI-7" style="edgeStyle=orthogonalEdgeStyle;rounded=0;orthogonalLoop=1;jettySize=auto;html=1;exitX=1;exitY=0.5;exitDx=0;exitDy=0;entryX=0;entryY=0.5;entryDx=0;entryDy=0;fontSize=20;" edge="1" parent="1" source="5F9VPTxNChQA8b4Fi6tI-1" target="5F9VPTxNChQA8b4Fi6tI-2">
          <mxGeometry relative="1" as="geometry" />
        </mxCell>
        <mxCell id="5F9VPTxNChQA8b4Fi6tI-8" style="edgeStyle=orthogonalEdgeStyle;rounded=0;orthogonalLoop=1;jettySize=auto;html=1;exitX=1;exitY=0.5;exitDx=0;exitDy=0;entryX=0;entryY=0.5;entryDx=0;entryDy=0;fontSize=20;" edge="1" parent="1" source="5F9VPTxNChQA8b4Fi6tI-1" target="5F9VPTxNChQA8b4Fi6tI-3">
          <mxGeometry relative="1" as="geometry" />
        </mxCell>
        <mxCell id="5F9VPTxNChQA8b4Fi6tI-9" style="edgeStyle=orthogonalEdgeStyle;rounded=0;orthogonalLoop=1;jettySize=auto;html=1;exitX=1;exitY=0.5;exitDx=0;exitDy=0;entryX=0;entryY=0.5;entryDx=0;entryDy=0;fontSize=20;" edge="1" parent="1" source="5F9VPTxNChQA8b4Fi6tI-1" target="5F9VPTxNChQA8b4Fi6tI-4">
          <mxGeometry relative="1" as="geometry" />
        </mxCell>
        <mxCell id="5F9VPTxNChQA8b4Fi6tI-10" style="edgeStyle=orthogonalEdgeStyle;rounded=0;orthogonalLoop=1;jettySize=auto;html=1;exitX=1;exitY=0.5;exitDx=0;exitDy=0;entryX=0;entryY=0.5;entryDx=0;entryDy=0;fontSize=20;" edge="1" parent="1" source="5F9VPTxNChQA8b4Fi6tI-1" target="5F9VPTxNChQA8b4Fi6tI-5">
          <mxGeometry relative="1" as="geometry" />
        </mxCell>
        <mxCell id="5F9VPTxNChQA8b4Fi6tI-11" style="edgeStyle=orthogonalEdgeStyle;rounded=0;orthogonalLoop=1;jettySize=auto;html=1;exitX=1;exitY=0.5;exitDx=0;exitDy=0;entryX=0;entryY=0.5;entryDx=0;entryDy=0;fontSize=20;" edge="1" parent="1" source="5F9VPTxNChQA8b4Fi6tI-1" target="5F9VPTxNChQA8b4Fi6tI-6">
          <mxGeometry relative="1" as="geometry" />
        </mxCell>
        <mxCell id="5F9VPTxNChQA8b4Fi6tI-1" value="维保体系" style="rounded=1;whiteSpace=wrap;html=1;fillColor=#f5f5f5;strokeColor=#666666;fontColor=#333333;fontSize=20;" vertex="1" parent="1">
          <mxGeometry x="130" y="273" width="120" height="60" as="geometry" />
        </mxCell>
        <mxCell id="5F9VPTxNChQA8b4Fi6tI-2" value="例保" style="rounded=1;whiteSpace=wrap;html=1;fillColor=#dae8fc;strokeColor=#6c8ebf;fontSize=20;" vertex="1" parent="1">
          <mxGeometry x="390" y="120" width="120" height="60" as="geometry" />
        </mxCell>
        <mxCell id="5F9VPTxNChQA8b4Fi6tI-3" value="日保" style="rounded=1;whiteSpace=wrap;html=1;fillColor=#dae8fc;strokeColor=#6c8ebf;fontSize=20;" vertex="1" parent="1">
          <mxGeometry x="390" y="196" width="120" height="60" as="geometry" />
        </mxCell>
        <mxCell id="5F9VPTxNChQA8b4Fi6tI-4" value="轮保" style="rounded=1;whiteSpace=wrap;html=1;fillColor=#dae8fc;strokeColor=#6c8ebf;fontSize=20;" vertex="1" parent="1">
          <mxGeometry x="390" y="273" width="120" height="60" as="geometry" />
        </mxCell>
        <mxCell id="5F9VPTxNChQA8b4Fi6tI-5" value="项修" style="rounded=1;whiteSpace=wrap;html=1;fillColor=#ffe6cc;strokeColor=#d79b00;fontSize=20;" vertex="1" parent="1">
          <mxGeometry x="390" y="349" width="120" height="60" as="geometry" />
        </mxCell>
        <mxCell id="5F9VPTxNChQA8b4Fi6tI-6" value="部件化维修" style="rounded=1;whiteSpace=wrap;html=1;fillColor=#ffe6cc;strokeColor=#d79b00;fontSize=20;" vertex="1" parent="1">
          <mxGeometry x="390" y="425" width="120" height="60" as="geometry" />
        </mxCell>
      </root>
    </mxGraphModel>
  </diagram>
</mxfile>
